#!OML:ASF H:\LiuWeirdWalks\Patient Classification 1\Patient 1\Session 1\male.ASF
:FULLY-SPECIFIED
:DEGREES
647
root -0.229295 17.6237 -8.11193 -9.00503 1.0451 2.38484
lowerback 6.4267 -0.0637817 2.33966
upperback 0.827072 0.278615 6.6049
thorax -2.77812 0.14787 5.53888
lowerneck -14.3448 1.55834 4.10788
upperneck 24.607 5.42863 -15.813
head 10.8852 1.0664 -5.74799
rclavicle -6.55989e-015 5.725e-014
rhumerus -32.8425 -26.0667 -15.9844
rradius 35.4701
rwrist -3.19093
rhand -19.0208 1.58819
rfingers 7.12502
rthumb 7.28504 -28.2664
lclavicle -6.55989e-015 5.725e-014
lhumerus -25.678 25.0748 9.10723
lradius 45.3339
lwrist 9.6866
lhand -17.5255 3.93846
lfingers 7.12502
lthumb 8.72827 33.738
rfemur -5.66747 1.65018 13.2336
rtibia 39.1569
rfoot -17.2719 -8.26048
rtoes -8.0526
lfemur -3.16628 3.70699 -12.3745
ltibia 59.158
lfoot -8.02357 2.33062
ltoes -20.4606
648
root -0.248477 17.6111 -8.01385 -9.33259 0.976995 2.17325
lowerback 6.24455 -0.0536163 2.36985
upperback 0.775523 0.285321 6.58677
thorax -2.72977 0.150913 5.50035
lowerneck -14.2715 1.58986 4.1479
upperneck 24.8317 5.48584 -15.7715
head 10.9601 1.09652 -5.74379
rclavicle 4.17448e-015 -1.90833e-014
rhumerus -32.7508 -25.9785 -15.709
rradius 35.5417
rwrist -3.17215
rhand -19.076 1.57746
rfingers 7.12502
rthumb 7.23178 -28.279
lclavicle 4.17448e-015 -1.90833e-014
lhumerus -25.6811 25.2848 8.97224
lradius 45.2705
lwrist 9.67511
lhand -17.4254 3.94598
lfingers 7.12502
lthumb 8.82487 33.7415
rfemur -4.91058 1.35434 13.4562
rtibia 39.0872
rfoot -17.6058 -7.91642
rtoes -8.2004
lfemur -3.26367 3.7202 -12.1849
ltibia 58.6939
lfoot -8.72783 2.23575
ltoes -20.3869
649
root -0.266697 17.5985 -7.91657 -9.65607 0.930036 1.95539
lowerback 6.06203 -0.0506573 2.39455
upperback 0.718007 0.282205 6.56243
thorax -2.68656 0.149152 5.45934
lowerneck -14.204 1.61792 4.17621
upperneck 25.0868 5.53302 -15.6859
head 11.0446 1.12467 -5.7236
rclavicle 1.23246e-014 3.49861e-014
rhumerus -32.6574 -25.9302 -15.3939
rradius 35.6037
rwrist -3.11152
rhand -19.1122 1.55852
rfingers 7.12502
rthumb 7.19683 -28.2991
lclavicle 1.23246e-014 3.49861e-014
lhumerus -25.682 25.4772 8.87226
lradius 45.2011
lwrist 9.67688
lhand -17.3721 3.94588
lfingers 7.12502
lthumb 8.87628 33.7392
rfemur -4.14443 1.01923 13.6638
rtibia 38.9978
rfoot -17.9376 -7.56137
rtoes -8.32376
lfemur -3.34314 3.71397 -11.996
ltibia 58.1484
lfoot -9.44998 2.20499
ltoes -20.459
650
root -0.284122 17.5857 -7.82023 -9.97421 0.877767 1.69758
lowerback 5.88 -0.0478554 2.45251
upperback 0.659479 0.281137 6.53999
thorax -2.64466 0.148081 5.40128
lowerneck -14.1796 1.63798 4.17548
upperneck 25.4106 5.56811 -15.5381
head 11.1597 1.14754 -5.68007
rclavicle 1.68967e-014 2.22639e-014
rhumerus -32.5694 -25.9175 -15.0445
rradius 35.6615
rwrist -3.04948
rhand -19.1076 1.54254
rfingers 7.12502
rthumb 7.20133 -28.3149
lclavicle 1.68967e-014 2.22639e-014
lhumerus -25.6759 25.6233 8.81202
lradius 45.1369
lwrist 9.72529
lhand -17.3962 3.96236
lfingers 7.12502
lthumb 8.85307 33.7566
rfemur -3.37549 0.678992 13.9043
rtibia 38.8854
rfoot -18.2611 -7.20966
rtoes -8.40266
lfemur -3.4083 3.70714 -11.7609
ltibia 57.5388
lfoot -10.1685 2.2367
ltoes -20.6028
651
root -0.300687 17.5732 -7.72502 -10.2804 0.827721 1.40592
lowerback 5.69448 -0.0484903 2.53895
upperback 0.604164 0.276621 6.51693
thorax -2.59702 0.144933 5.32663
lowerneck -14.1819 1.6529 4.16945
upperneck 25.7424 5.58745 -15.3555
head 11.2806 1.16552 -5.62479
rclavicle 3.77691e-015 5.08889e-014
rhumerus -32.4717 -25.9572 -14.6762
rradius 35.7071
rwrist -2.96979
rhand -19.09 1.51273
rfingers 7.12502
rthumb 7.21824 -28.3442
lclavicle 3.77691e-015 5.08889e-014
lhumerus -25.6602 25.7801 8.77805
lradius 45.054
lwrist 9.71983
lhand -17.3914 3.93633
lfingers 7.12502
lthumb 8.85766 33.7304
rfemur -2.61325 0.336923 14.1725
rtibia 38.7522
rfoot -18.5586 -6.87405
rtoes -8.47899
lfemur -3.47123 3.6892 -11.4912
ltibia 56.8784
lfoot -10.8829 2.34626
ltoes -20.8148
652
root -0.3164 17.5607 -7.63103 -10.5791 0.775041 1.08511
lowerback 5.52131 -0.0463393 2.65514
upperback 0.543937 0.278434 6.48905
thorax -2.56169 0.144681 5.22968
lowerneck -14.1707 1.66575 4.17612
upperneck 26.0573 5.59117 -15.1524
head 11.3903 1.18145 -5.56466
rclavicle -4.37326e-015 -4.45278e-014
rhumerus -32.3926 -26.0111 -14.2894
rradius 35.7563
rwrist -2.91461
rhand -19.0667 1.46639
rfingers 7.12502
rthumb 7.24074 -28.3897
lclavicle -4.37326e-015 -4.45278e-014
lhumerus -25.6303 25.8818 8.78057
lradius 44.9757
lwrist 9.72406
lhand -17.3945 3.92153
lfingers 7.12502
lthumb 8.85462 33.7158
rfemur -1.85977 0.0120817 14.4701
rtibia 38.6042
rfoot -18.8196 -6.56853
rtoes -8.58142
lfemur -3.5273 3.65793 -11.1924
ltibia 56.1815
lfoot -11.588 2.55509
ltoes -21.0131
653
root -0.331111 17.5487 -7.53823 -10.8636 0.722258 0.764098
lowerback 5.35206 -0.0460752 2.7693
upperback 0.47849 0.277613 6.45074
thorax -2.53367 0.143102 5.12326
lowerneck -14.1601 1.67316 4.18992
upperneck 26.3672 5.578 -14.9321
head 11.4961 1.19289 -5.50093
rclavicle 3.97569e-016 -9.54166e-015
rhumerus -32.3068 -26.0638 -13.9084
rradius 35.8017
rwrist -2.87385
rhand -19.0593 1.41956
rfingers 7.12502
rthumb 7.24787 -28.4363
lclavicle 3.97569e-016 -9.54166e-015
lhumerus -25.6041 25.9556 8.79751
lradius 44.8872
lwrist 9.6623
lhand -17.3931 3.91591
lfingers 7.12502
lthumb 8.85602 33.7101
rfemur -1.12772 -0.292542 14.7657
rtibia 38.4505
rfoot -19.0428 -6.292
rtoes -8.72839
lfemur -3.58376 3.616 -10.9007
ltibia 55.4565
lfoot -12.2771 2.8695
ltoes -21.1384
654
root -0.345157 17.5369 -7.44687 -11.134 0.659201 0.425234
lowerback 5.19199 -0.0433322 2.8979
upperback 0.40769 0.28156 6.40922
thorax -2.51656 0.143741 5.00515
lowerneck -14.108 1.68139 4.23808
upperneck 26.6303 5.55283 -14.7237
head 11.5755 1.20449 -5.44646
rclavicle -3.57812e-015 1.27222e-014
rhumerus -32.2194 -26.107 -13.5291
rradius 35.8371
rwrist -2.8117
rhand -19.0755 1.3565
rfingers 7.12502
rthumb 7.23224 -28.4999
lclavicle -3.57812e-015 1.27222e-014
lhumerus -25.5654 26.0377 8.84125
lradius 44.7825
lwrist 9.56661
lhand -17.4007 3.91058
lfingers 7.12502
lthumb 8.84867 33.7051
rfemur -0.426893 -0.559151 15.0914
rtibia 38.3021
rfoot -19.2273 -6.06575
rtoes -8.9129
lfemur -3.64355 3.57303 -10.5896
ltibia 54.7145
lfoot -12.9727 3.29258
ltoes -21.157
655
root -0.35811 17.5257 -7.35702 -11.3842 0.596517 0.102745
lowerback 5.03138 -0.0430717 3.00722
upperback 0.329759 0.280977 6.35828
thorax -2.50621 0.14225 4.8886
lowerneck -14.0534 1.70341 4.32766
upperneck 26.8345 5.53518 -14.5399
head 11.6348 1.22311 -5.40445
rclavicle 3.97569e-016 -5.24792e-014
rhumerus -32.1104 -26.1436 -13.1645
rradius 35.8605
rwrist -2.72448
rhand -19.1277 1.2816
rfingers 7.12502
rthumb 7.18188 -28.5765
lclavicle 3.97569e-016 -5.24792e-014
lhumerus -25.5486 26.0895 8.89855
lradius 44.683
lwrist 9.48509
lhand -17.4044 3.89962
lfingers 7.12502
lthumb 8.84515 33.6942
rfemur 0.232259 -0.801851 15.4066
rtibia 38.169
rfoot -19.3737 -5.8942
rtoes -9.15611
lfemur -3.71357 3.53233 -10.3026
ltibia 53.9625
lfoot -13.6465 3.82302
ltoes -21.0965
656
root -0.369662 17.5147 -7.26844 -11.6096 0.513787 -0.195049
lowerback 4.85968 -0.0364839 3.09254
upperback 0.252543 0.286054 6.29641
thorax -2.4892 0.143708 4.77375
lowerneck -13.9939 1.71921 4.40585
upperneck 27.0583 5.50612 -14.3317
head 11.6983 1.23813 -5.35343
rclavicle 9.14409e-015 -4.6118e-014
rhumerus -31.9787 -26.172 -12.8147
rradius 35.8673
rwrist -2.63419
rhand -19.1785 1.22693
rfingers 7.12502
rthumb 7.13285 -28.6329
lclavicle 9.14409e-015 -4.6118e-014
lhumerus -25.5512 26.1224 8.97129
lradius 44.5938
lwrist 9.43879
lhand -17.4309 3.88736
lfingers 7.12502
lthumb 8.81958 33.6831
rfemur 0.838426 -1.00977 15.7074
rtibia 38.058
rfoot -19.4937 -5.78568
rtoes -9.41851
lfemur -3.79078 3.50957 -10.0481
ltibia 53.2083
lfoot -14.2811 4.46397
ltoes -20.9568
657
root -0.379775 17.5037 -7.18192 -11.8058 0.436219 -0.458795
lowerback 4.67542 -0.0324604 3.14342
upperback 0.174584 0.284459 6.22241
thorax -2.4655 0.142102 4.66614
lowerneck -13.9493 1.72525 4.45509
upperneck 27.2776 5.46318 -14.1046
head 11.7607 1.24585 -5.29138
rclavicle 1.51076e-014 -8.5875e-014
rhumerus -31.8125 -26.1942 -12.4906
rradius 35.8545
rwrist -2.51231
rhand -19.2566 1.18453
rfingers 7.12502
rthumb 7.05748 -28.6778
lclavicle 1.51076e-014 -8.5875e-014
lhumerus -25.5845 26.1582 9.04953
lradius 44.511
lwrist 9.38958
lhand -17.4399 3.85663
lfingers 7.12502
lthumb 8.81083 33.6527
rfemur 1.38809 -1.2082 15.98
rtibia 37.9725
rfoot -19.5937 -5.75596
rtoes -9.68334
lfemur -3.8901 3.48911 -9.84197
ltibia 52.4567
lfoot -14.8606 5.19925
ltoes -20.7888
